<svg id="Logo_shop" data-name="Logo shop" xmlns="http://www.w3.org/2000/svg" viewBox="0 0 20 19">
<defs>
<style>.cls-1{fill:#ffab00;}.cls-2{fill:red;}.cls-3{fill:#c60009;}.cls-4{fill:#152736;}</style>
</defs>
<title>logoShop</title>
<path class="cls-1" d="M6.81,2.57V1.79A.78.78,0,0,0,6,1H1.61a.78.78,0,0,0-.77.78.76.76,0,0,0,.77.77h5.2Z"/>
<path class="cls-2" d="M19.11,3.87a1.07,1.07,0,0,0-.88-.46h-13v2H7.39a.5.5,0,0,1,.51.49h0v.3a.49.49,0,0,1-.5.48H5.25v.63h6.41a.49.49,0,0,1,.5.48h0v.27a.49.49,0,0,1-.49.49H5.25v2.12h0v.39a1.15,1.15,0,0,0,1.14,1.15h8.79a1.42,1.42,0,0,0,1.24-.84l1.4-3.2.54-1.24h0l.28-.64h0l.54-1.24A1.3,1.3,0,0,0,19.11,3.87ZM8.61,9.73a.49.49,0,0,1-.49.49H6.8a.49.49,0,0,1-.5-.48h0V9.46A.48.48,0,0,1,6.8,9H8.11a.48.48,0,0,1,.5.46v.27Zm6.56-1.8c-1.54-.7-2.26-2.52-1.36-3s1.36.57,1.36.57.55-1,1.35-.57S16.64,7.3,15.17,7.93Z"/><path class="cls-2" d="M.6,7.31H5.26V8.55H.6a.5.5,0,0,1-.51-.49h0V7.79A.5.5,0,0,1,.6,7.31Z"/><path class="cls-2" d="M4.48,9H3.17a.48.48,0,0,0-.5.46v.29a.49.49,0,0,0,.49.49H4.48A.5.5,0,0,0,5,9.76v-.3A.49.49,0,0,0,4.48,9Z"/><path class="cls-2" d="M3.68,5.45H5.26V6.69H3.68a.5.5,0,0,1-.51-.49h0V5.93a.49.49,0,0,1,.5-.48Z"/><path class="cls-3" d="M18.23,3.41H15.86L15,5.28a1.64,1.64,0,0,1,.2.26s.55-1,1.35-.57.12,2.33-1.35,3a3.39,3.39,0,0,1-1.08-.79l-2.41,5.07h3.5a1.42,1.42,0,0,0,1.24-.84l1.4-3.2L18.39,7h0l.28-.64h0l.54-1.24a1.3,1.3,0,0,0-.07-1.18A1,1,0,0,0,18.23,3.41Z"/><path class="cls-1" d="M8.35,14.75A1.62,1.62,0,1,0,10,16.37a1.63,1.63,0,0,0-1.65-1.62Z"/>
<path class="cls-1" d="M13.89,14.75a1.62,1.62,0,1,0,1.61,1.63h0A1.62,1.62,0,0,0,13.89,14.75Z"/>
<path class="cls-4" d="M14.1,13.47a.43.43,0,0,1-.43.43h-5a.43.43,0,0,1-.43-.43h0a.44.44,0,0,1,.4-.47h5a.44.44,0,0,1,.43.44Z"/>
</svg>